PathFileType	4	(X/Y/Z)	Kaydara																																																																																																																									
DataRate	CameraRate	NumFrames	NumMarkers	Units	OrigDataRate	OrigDataStartFrame	OrigNumFrames																																																																																																																					
30	30	6	41	mm	30	157	179																																																																																																																					
Frame#	Time	EMLA_LFHD			EMLA_RFHD			EMLA_LBHD			EMLA_RBHD			EMLA_LFTShould			EMLA_RFTShould			EMLA_LRRShould			EMLA_RRRShould			EMLA_T10			EMLA_STRN			EMLA_TRUN			EMLA_LSHO			EMLA_LUPA			EMLA_LELB			EMLA_LFRM			EMLA_LWRA			EMLA_LWRB			EMLA_LFIN			EMLA_RSHO			EMLA_RUPA			EMLA_RELB			EMLA_RFRM			EMLA_RWRA			EMLA_RWRB			EMLA_RFIN			EMLA_LFWT			EMLA_RFWT			EMLA_LBWT			EMLA_RBWT			EMLA_LTHI			EMLA_LKNE			EMLA_LSHN			EMLA_LANK			EMLA_LHEE			EMLA_LTOE			EMLA_RTHI			EMLA_RKNE			EMLA_RSHN			EMLA_RANK			EMLA_RHEE			EMLA_RTOE		
		X1	Y1	Z1	X2	Y2	Z2	X3	Y3	Z3	X4	Y4	Z4	X5	Y5	Z5	X6	Y6	Z6	X7	Y7	Z7	X8	Y8	Z8	X9	Y9	Z9	X10	Y10	Z10	X11	Y11	Z11	X12	Y12	Z12	X13	Y13	Z13	X14	Y14	Z14	X15	Y15	Z15	X16	Y16	Z16	X17	Y17	Z17	X18	Y18	Z18	X19	Y19	Z19	X20	Y20	Z20	X21	Y21	Z21	X22	Y22	Z22	X23	Y23	Z23	X24	Y24	Z24	X25	Y25	Z25	X26	Y26	Z26	X27	Y27	Z27	X28	Y28	Z28	X29	Y29	Z29	X30	Y30	Z30	X31	Y31	Z31	X32	Y32	Z32	X33	Y33	Z33	X34	Y34	Z34	X35	Y35	Z35	X36	Y36	Z36	X37	Y37	Z37	X38	Y38	Z38	X39	Y39	Z39	X40	Y40	Z40	X41	Y41	Z41
																																																																																																																												
157	5.21	294.45141	1558.99307	1718.98346	125.15343	1544.23492	1708.47198	319.27174	1542.32224	1572.24457	125.5385	1527.61322	1556.91071	304.60943	1317.76978	1671.89728	156.15046	1308.94714	1677.59125	298.70922	1361.79916	1523.98727	149.10486	1356.47583	1528.17535	237.07012	1184.48624	1483.30185	232.17564	1249.37828	1714.91608	230.69981	1146.49864	1736.63589	424.04076	1347.99576	1614.26559	498.72089	1182.18056	1652.59644	538.21045	1055.89249	1709.22211	523.28468	946.47484	1804.13132	418.11192	910.47684	1951.24832	471.64787	846.77132	1930.67642	461.38626	870.45212	1994.67239	39.66652	1343.79761	1603.90366	-18.34051	1166.94519	1537.85873	-31.06391	1042.73758	1466.39603	-36.54445	961.38283	1414.60083	-18.67065	758.39157	1434.50409	-44.12101	787.36252	1355.34836	-72.50754	736.20911	1382.96295	356.46915	906.34872	1687.96738	123.24009	899.48792	1717.50031	283.28766	922.81494	1496.74149	113.31752	910.96962	1531.58829	345.78613	690.39597	1449.45343	371.72844	480.73711	1424.71725	340.02075	305.82798	1357.01782	332.67685	184.48092	1208.38234	263.88773	146.50909	1117.57217	284.4986	39.9244	1278.01407	96.38975	607.15446	1652.18521	92.93132	464.85573	1821.73615	151.87396	265.16544	1919.58115	119.25591	81.9417	1915.74554	178.38593	18.92148	1884.65057	152.46264	72.23611	2075.59479
158	5.243	289.81386	1561.30753	1771.33087	120.50643	1547.21313	1760.54962	314.9461	1541.80588	1624.94492	121.26385	1528.00781	1609.27094	299.81392	1319.89059	1729.17816	150.59343	1309.34158	1733.5202	293.74804	1360.86823	1579.34082	144.89161	1355.3215	1583.94928	233.07949	1182.10335	1541.95389	226.45189	1251.27228	1772.30865	224.58347	1148.9357	1795.89432	420.4723	1347.97028	1670.35782	493.90503	1180.61104	1707.60483	533.38142	1052.54982	1760.10864	519.43981	940.42702	1851.5918	417.42554	899.87366	1999.47098	469.86885	836.49132	1975.31311	461.2215	857.81914	2040.29297	34.71389	1343.11142	1658.30292	-23.19974	1166.11061	1592.43713	-35.41754	1041.6436	1521.7131	-39.96705	958.91846	1470.38055	-21.18154	756.52428	1493.97278	-45.94806	783.61336	1414.12552	-74.58992	733.09471	1442.55234	350.51987	902.24472	1749.58664	118.31082	906.76834	1775.71121	280.2425	920.51186	1557.08664	108.49397	916.7617	1588.73047	340.10853	684.75578	1513.5466	373.43174	477.18113	1488.55621	345.19489	308.4201	1404.85199	334.43066	202.68522	1245.04829	263.74025	175.92323	1156.68343	284.52396	37.55858	1285.91965	90.20449	610.52334	1708.47931	87.58152	468.72459	1878.0043	155.37635	263.06341	1958.52554	117.62468	82.74003	1941.57959	175.12026	28.62247	1896.18652	158.13296	38.84377	2097.36954
159	5.277	285.69286	1566.65573	1823.44421	116.29815	1553.60901	1812.66388	310.93098	1544.00391	1677.51465	117.09088	1531.29852	1661.82632	295.02729	1323.74664	1786.85226	146.28565	1313.38501	1788.45642	292.5528	1366.59302	1638.1218	142.18408	1359.02374	1639.05045	232.35905	1188.41087	1599.42001	221.37867	1255.31204	1828.55621	219.29907	1152.89207	1852.09	417.25574	1352.28073	1731.53992	489.64291	1181.01151	1759.58298	527.29385	1051.2339	1806.09024	515.68977	934.53865	1891.24542	417.79026	884.69864	2039.2067	469.22539	822.78389	2009.47845	462.69825	840.02769	2075.78583	30.74211	1345.92468	1712.24335	-26.64562	1166.50711	1651.08078	-39.70973	1040.31235	1583.55164	-44.61299	955.93933	1534.62982	-24.31796	754.66278	1564.3663	-50.41439	779.09561	1483.96957	-77.77319	728.91655	1514.13956	342.07241	902.28287	1809.07043	109.16945	916.00471	1827.5264	283.01069	918.64754	1613.94257	109.15743	924.76326	1639.95316	335.72372	672.23808	1582.97287	376.88187	467.16183	1569.07181	350.74162	307.69772	1470.75546	334.83402	223.15916	1298.48328	260.81114	211.43681	1214.85985	284.96225	43.91701	1302.73346	76.50955	624.58256	1757.83737	82.64256	477.68692	1931.76193	151.30948	260.67207	1989.27704	119.99537	83.38991	1950.42297	176.24735	31.3441	1900.11292	161.83302	31.66612	2103.9743
160	5.31	282.45169	1573.26263	1875.14435	112.99931	1560.77087	1864.43024	307.99206	1548.21548	1729.95667	113.85733	1535.73074	1713.98087	292.18332	1329.64462	1840.67093	144.22663	1318.86307	1841.41525	291.6814	1374.06219	1692.79419	140.63489	1365.35522	1692.02667	233.73468	1194.98451	1651.53366	218.71944	1260.29175	1881.539	216.39248	1157.73277	1904.11469	414.77394	1358.86871	1787.61978	485.11108	1186.4962	1812.23129	521.25732	1053.24562	1848.62625	511.95141	929.92264	1923.79501	418.97419	865.99228	2069.36478	469.15752	807.05002	2031.94443	465.53261	818.31123	2099.86176	28.51315	1351.02982	1764.81033	-28.93897	1168.16238	1711.32675	-43.51575	1039.07204	1649.90906	-49.28872	952.39288	1605.12527	-27.58841	752.7446	1644.61807	-56.08853	773.47061	1563.06915	-82.13387	724.2186	1596.75156	334.61872	905.70961	1861.36261	101.23617	924.63943	1875.99213	281.633	920.53802	1664.4191	106.84926	931.62262	1687.50504	332.28748	655.4026	1655.08347	377.46056	454.24629	1663.21426	350.63179	307.67162	1553.19611	333.24833	244.88338	1373.75336	256.30671	246.87368	1300.42374	295.29852	60.46678	1337.2348	71.98567	628.12202	1803.85773	76.83144	475.40184	1963.41202	150.13832	257.45722	2006.61148	120.68858	83.37482	1954.39606	176.3439	32.77586	1900.3331	163.86127	30.73172	2104.16061
161	5.343	280.77444	1582.59918	1925.88318	111.38409	1569.2984	1915.32867	306.38557	1557.31476	1780.67429	112.15559	1543.86337	1764.86862	292.73567	1337.3056	1890.03128	144.39677	1325.97656	1892.03918	289.6398	1383.18237	1741.90201	137.46167	1374.60815	1742.52777	230.38429	1204.86511	1699.55627	219.50874	1267.71385	1931.10062	217.47156	1164.90509	1952.64481	414.9469	1366.62613	1835.30945	481.12728	1192.864	1859.23264	515.61981	1056.87332	1888.25027	508.96069	927.82364	1950.22049	420.52944	846.2571	2089.79965	470.31384	792.90344	2044.31854	468.30036	795.67108	2112.91794	26.1386	1357.40051	1817.72583	-30.77822	1170.29541	1774.50577	-47.12353	1038.39272	1719.55215	-53.58884	948.75526	1680.58762	-29.96309	752.55836	1733.10837	-60.77362	767.44553	1651.38947	-86.30138	721.08749	1689.04282	330.41279	913.68134	1908.16452	96.28288	933.57895	1921.72073	278.5273	926.89041	1710.35553	104.50765	942.59605	1732.79007	329.4458	644.814	1727.70065	376.76636	450.45925	1762.41547	347.27169	311.34197	1647.97272	328.45757	263.12365	1461.88263	245.41775	266.48184	1391.75201	310.06258	83.75771	1418.19031	76.15386	637.1339	1826.08658	75.86625	476.04	1986.29791	148.74317	254.98163	2017.56165	120.97646	83.90557	1956.35162	176.96081	34.05359	1900.54749	164.76711	30.42522	2104.02832
162	5.377	280.98007	1590.95947	1975.27435	111.51084	1577.73087	1965.32684	305.86895	1568.46069	1829.43405	111.50131	1555.22446	1814.42017	293.57815	1347.79755	1935.22614	145.67389	1335.64606	1939.81049	287.01921	1393.02704	1787.38937	134.27688	1384.00482	1791.5094	225.58826	1215.38696	1745.74463	221.43623	1277.43248	1977.56699	219.66558	1174.58122	1998.92517	415.44586	1375.58228	1877.98355	480.55077	1199.20166	1893.517	510.86029	1061.38	1921.67831	507.26292	928.86055	1970.65384	422.31575	828.84659	2100.63477	474.28627	783.94699	2049.23798	471.07094	776.53168	2117.05078	24.33742	1366.06476	1869.19159	-31.68978	1174.62585	1838.05771	-50.37279	1039.6563	1793.03284	-57.78775	947.10548	1761.13647	-30.36837	755.95001	1828.23807	-64.07509	763.75313	1747.38174	-88.61326	721.28563	1789.6701	327.28867	926.0643	1953.63876	92.41765	941.29478	1965.23209	277.16869	937.1888	1755.45364	103.0157	953.96393	1777.20642	328.59715	644.47014	1800.06119	374.12708	457.92305	1859.34601	345.74684	319.573	1749.15359	325.3281	274.19083	1563.25348	243.93547	273.46958	1483.92532	311.61049	96.55736	1534.60327	69.16791	646.91177	1859.53186	75.15323	474.505	2002.05124	148.60361	253.17911	2024.86359	121.24415	84.53903	1957.77527	177.3247	35.04192	1900.56244	165.67297	30.25777	2103.96576
